<?xml version="1.0" encoding="UTF-8" standalone="no"?>
<!-- Created with Inkscape (http://www.inkscape.org/) -->

<svg
   xmlns:dc="http://purl.org/dc/elements/1.1/"
   xmlns:cc="http://creativecommons.org/ns#"
   xmlns:rdf="http://www.w3.org/1999/02/22-rdf-syntax-ns#"
   xmlns:svg="http://www.w3.org/2000/svg"
   xmlns="http://www.w3.org/2000/svg"
   xmlns:sodipodi="http://sodipodi.sourceforge.net/DTD/sodipodi-0.dtd"
   xmlns:inkscape="http://www.inkscape.org/namespaces/inkscape"
   width="1000"
   height="1000"
   viewBox="0 0 264.58333 264.58333"
   version="1.1"
   id="svg3470"
   inkscape:version="0.92.3 (2405546, 2018-03-11)"
   sodipodi:docname="icons.svg"
   inkscape:export-filename="D:\Projetos\tattooprint\assets\svgs\icons.png"
   inkscape:export-xdpi="96"
   inkscape:export-ydpi="96">
  <defs
     id="defs3464" />
  <sodipodi:namedview
     id="base"
     pagecolor="#ffffff"
     bordercolor="#666666"
     borderopacity="1.0"
     inkscape:pageopacity="0.0"
     inkscape:pageshadow="2"
     inkscape:zoom="1"
     inkscape:cx="114.4716"
     inkscape:cy="748.99356"
     inkscape:document-units="mm"
     inkscape:current-layer="layer1"
     showgrid="false"
     units="px"
     inkscape:window-width="1920"
     inkscape:window-height="1017"
     inkscape:window-x="-8"
     inkscape:window-y="-8"
     inkscape:window-maximized="1" />
  <metadata
     id="metadata3467">
    <rdf:RDF>
      <cc:Work
         rdf:about="">
        <dc:format>image/svg+xml</dc:format>
        <dc:type
           rdf:resource="http://purl.org/dc/dcmitype/StillImage" />
        <dc:title />
      </cc:Work>
    </rdf:RDF>
  </metadata>
  <g
     inkscape:label="Camada 1"
     inkscape:groupmode="layer"
     id="layer1"
     transform="translate(0,-32.41667)">
    <path
       id="path24"
       d="m 39.347512,69.533747 c -2.04577,0 -3.704166,1.6584 -3.704166,3.70417 0,2.04576 1.658396,3.70416 3.704166,3.70416 2.04577,0 3.704167,-1.6584 3.704167,-3.70416 0,-2.04577 -1.658397,-3.70417 -3.704167,-3.70417 z m -0.46302,5.44051 c 0,0.1918 -0.155494,0.34729 -0.347286,0.34729 -0.191794,0 -0.347286,-0.15549 -0.347286,-0.34729 v -0.0877 l -0.333212,0.33322 c -0.06783,0.0678 -0.156645,0.10174 -0.245544,0.10174 -0.04387,0 -0.08767,-0.009 -0.129069,-0.0249 -0.04239,-0.017 -0.08215,-0.0424 -0.116477,-0.0768 -0.03433,-0.0343 -0.05984,-0.0741 -0.0768,-0.11648 -0.04996,-0.12511 -0.02453,-0.27328 0.0768,-0.37461 l 0.333211,-0.33321 h -0.08767 c -0.191793,0 -0.347287,-0.15549 -0.347287,-0.34729 0,-0.19179 0.155494,-0.34728 0.347287,-0.34728 h 0.926042 c 0.191792,0 0.347286,0.15549 0.347286,0.34728 z m 0,-2.54665 c 0,0.19179 -0.155494,0.34728 -0.347286,0.34728 h -0.926042 c -0.191793,0 -0.347287,-0.15549 -0.347287,-0.34728 0,-0.19179 0.155494,-0.34729 0.347287,-0.34729 h 0.08767 l -0.333211,-0.33321 c -0.101246,-0.10125 -0.126765,-0.2495 -0.0768,-0.37461 0.01695,-0.0424 0.04247,-0.0822 0.0768,-0.11647 0.03433,-0.0343 0.07409,-0.0598 0.116477,-0.0768 0.04132,-0.0165 0.0852,-0.0249 0.129069,-0.0249 0.0889,0 0.177718,0.034 0.245544,0.10175 l 0.333212,0.33321 v -0.0877 c 0,-0.19179 0.155492,-0.34729 0.347286,-0.34729 0.191792,0 0.347286,0.1555 0.347286,0.34729 z m 2.444914,2.30111 c 0.101248,0.10124 0.126766,0.24949 0.0768,0.37461 -0.01695,0.0424 -0.04247,0.0822 -0.0768,0.11648 -0.03433,0.0343 -0.07409,0.0599 -0.116474,0.0768 -0.04133,0.0165 -0.0852,0.0249 -0.129072,0.0249 -0.0889,0 -0.177716,-0.0339 -0.245544,-0.10173 l -0.33321,-0.33322 v 0.0877 c 0,0.1918 -0.155493,0.34729 -0.347287,0.34729 -0.191793,0 -0.347286,-0.15549 -0.347286,-0.34729 v -0.92603 c 0,-0.1918 0.155493,-0.34729 0.347286,-0.34729 h 0.926041 c 0.191795,0 0.347287,0.15549 0.347287,0.34729 0,0.1918 -0.155492,0.34728 -0.347287,0.34728 h -0.08767 z m -0.245546,-1.95383 h -0.926041 c -0.191793,0 -0.347286,-0.15549 -0.347286,-0.34728 v -0.92604 c 0,-0.19179 0.155493,-0.34729 0.347286,-0.34729 0.191794,0 0.347287,0.1555 0.347287,0.34729 v 0.0877 l 0.33321,-0.3332 c 0.06783,-0.0678 0.156645,-0.10175 0.245544,-0.10175 0.04387,0 0.08767,0.009 0.129072,0.0249 0.04239,0.017 0.08215,0.0424 0.116558,0.0768 0.03433,0.0343 0.05984,0.0741 0.0768,0.11647 0.04996,0.12504 0.02453,0.27329 -0.0768,0.37462 l -0.333211,0.33321 h 0.08767 c 0.191793,0 0.347286,0.15549 0.347286,0.34728 0,0.1918 -0.155575,0.34729 -0.34737,0.34729 z"
       inkscape:connector-curvature="0"
       style="fill:#000000;stroke-width:0.08231479"
       inkscape:export-filename="D:\Projetos\tattooprint\assets\images\menu_scaleminus.png"
       inkscape:export-xdpi="89.139999"
       inkscape:export-ydpi="89.139999" />
    <g
       id="g122"
       transform="matrix(0.07165798,0,0,0.07165798,-1.9221617,61.472756)"
       inkscape:export-filename="D:\Projetos\tattooprint\assets\images\menu_close.png"
       inkscape:export-xdpi="89.142662"
       inkscape:export-ydpi="89.142662">
      <path
         id="path105"
         d="m 234.38462,82.076923 c -28.54909,0 -51.69231,23.143227 -51.69231,51.692307 0,28.54909 23.14322,51.69231 51.69231,51.69231 28.54908,0 51.69231,-23.14322 51.69231,-51.69231 0,-28.54908 -23.14323,-51.692307 -51.69231,-51.692307 z m 18.09576,61.010707 c 2.52372,2.52374 2.52372,6.61432 0,9.13805 -2.52374,2.52374 -6.61432,2.52374 -9.13806,0 l -9.13804,-9.13805 -9.13806,9.13805 c -2.52374,2.52374 -6.61432,2.52374 -9.13805,0 -2.52373,-2.52373 -2.52373,-6.61431 0,-9.13805 l 9.13805,-9.13803 -9.13805,-9.13807 c -2.52373,-2.52374 -2.52373,-6.61432 0,-9.13806 2.52373,-2.52372 6.61431,-2.52372 9.13805,0 l 9.13806,9.13806 9.13804,-9.13806 c 2.52374,-2.52372 6.61432,-2.52372 9.13806,0 2.52372,2.52374 2.52372,6.61432 0,9.13806 l -9.13806,9.13807 z"
         inkscape:connector-curvature="0"
         style="fill:#000000;stroke-width:1.14871776" />
    </g>
    <g
       id="g155"
       transform="matrix(0.08231424,0,0,0.0823139,68.247697,62.14261)"
       inkscape:export-xdpi="89.139999"
       inkscape:export-ydpi="89.139999"
       inkscape:export-filename="D:\Projetos\tattooprint\assets\images\menu_minimize.png">
      <path
         id="path138"
         d="M 81.82,18.18 C 64.246,0.606 35.754,0.606 18.18,18.18 c -17.574,17.574 -17.574,46.066 0,63.64 17.574,17.574 46.066,17.574 63.64,0 17.574,-17.574 17.573,-46.066 0,-63.64 z M 66.875,55.847 h -33.75 c -3.107,0 -5.625,-2.518 -5.625,-5.625 0,-3.107 2.518,-5.625 5.625,-5.625 h 33.75 c 3.107,0 5.625,2.518 5.625,5.625 0,3.106 -2.518,5.625 -5.625,5.625 z"
         inkscape:connector-curvature="0"
         style="fill:#000000" />
    </g>
    <g
       id="g188"
       transform="matrix(0.08231481,0,0,0.08231481,23.722209,90.830761)"
       inkscape:export-filename="D:\Projetos\tattooprint\assets\images\menu_scaleplus.png"
       inkscape:export-xdpi="89.139999"
       inkscape:export-ydpi="89.139999">
      <path
         id="path171"
         d="M 50,5 C 25.147,5 5,25.147 5,50 5,74.853 25.147,95 50,95 74.853,95 95,74.853 95,50 95,25.147 74.853,5 50,5 Z m -9.844,61.875 c 2.33,0 4.219,1.889 4.219,4.219 0,2.33 -1.889,4.219 -4.219,4.219 h -11.25 c -0.559,0 -1.089,-0.114 -1.577,-0.312 -1.059,-0.428 -1.902,-1.271 -2.33,-2.33 -0.197,-0.488 -0.311,-1.019 -0.311,-1.577 v -11.25 c 0,-2.33 1.889,-4.219 4.219,-4.219 2.33,0 4.219,1.889 4.219,4.219 v 1.065 l 4.048,-4.048 c 0.824,-0.824 1.903,-1.236 2.983,-1.236 1.08,0 2.159,0.412 2.983,1.236 1.648,1.648 1.648,4.319 0,5.966 l -4.048,4.048 z m 2.983,-23.736 c -0.824,0.824 -1.904,1.236 -2.983,1.236 -1.079,0 -2.159,-0.412 -2.983,-1.236 l -4.048,-4.048 v 1.065 c 0,2.33 -1.889,4.219 -4.219,4.219 -2.33,0 -4.219,-1.889 -4.219,-4.219 v -11.25 c 0,-0.559 0.114,-1.089 0.311,-1.578 0.428,-1.059 1.271,-1.902 2.33,-2.33 0.488,-0.197 1.019,-0.311 1.577,-0.311 h 11.25 c 2.33,0 4.219,1.889 4.219,4.219 0,2.33 -1.889,4.219 -4.219,4.219 H 39.09 l 4.048,4.048 c 1.649,1.648 1.649,4.319 0.001,5.966 z m 32.173,27.955 c 0,0.559 -0.114,1.089 -0.311,1.577 -0.428,1.059 -1.271,1.902 -2.33,2.33 -0.488,0.197 -1.019,0.312 -1.577,0.312 h -11.25 c -2.33,0 -4.219,-1.889 -4.219,-4.219 0,-2.33 1.889,-4.219 4.219,-4.219 h 1.065 l -4.048,-4.048 c -1.648,-1.648 -1.648,-4.319 0,-5.966 0.824,-0.824 1.904,-1.236 2.983,-1.236 1.08,0 2.159,0.412 2.983,1.236 l 4.048,4.048 v -1.065 c 0,-2.33 1.889,-4.219 4.219,-4.219 2.33,0 4.219,1.889 4.219,4.219 v 11.25 z m 0,-30.938 c 0,2.33 -1.889,4.219 -4.219,4.219 -2.33,0 -4.219,-1.889 -4.219,-4.219 v -1.065 l -4.048,4.048 c -0.824,0.824 -1.903,1.236 -2.983,1.236 -1.08,0 -2.159,-0.412 -2.983,-1.236 -1.648,-1.648 -1.648,-4.319 0,-5.966 l 4.048,-4.048 h -1.065 c -2.33,0 -4.219,-1.889 -4.219,-4.219 0,-2.33 1.889,-4.219 4.219,-4.219 h 11.25 c 0.559,0 1.089,0.114 1.577,0.311 1.059,0.428 1.902,1.271 2.33,2.33 0.197,0.488 0.311,1.019 0.311,1.578 v 11.25 z"
         inkscape:connector-curvature="0"
         style="fill:#000000" />
    </g>
  </g>
</svg>
